# xmcd
#
# Track frame offsets:
#	150
#	29944
#	63949
#	90152
#	112908
#	142828
#	162735
#	181453
#	197602
#	219396
#	234435
#	262523
#	291243
#	304046
#
# Disc length: 4404 seconds
#
# Revision: 0
# Processed by: cddbd v1.4PL0 Copyright (c) Steve Scherf et al.
# Submitted via: audiograbber 1.80
#
DISCID=bc11320e
DTITLE=Bob Dylan - The Teater At Madison Square Garden2
DYEAR=1900
DGENRE=
TTITLE0=Highway 61 Revisited
TTITLE1=Don't Think Twice, It's All Right
TTITLE2=Love Sick
TTITLE3=Rainy Day Women #12 &35
TTITLE4=Can't Wait
TTITLE5=Tomorrow Is A Long Day
TTITLE6=Make You Feel  My Love
TTITLE7=I'll Not Be A Stranger
TTITLE8=White Dove
TTITLE9=Ragtime Annie
TTITLE10=This Weel's On Fire
TTITLE11=Not Dark Yet
TTITLE12=More And More
TTITLE13=You Are A Big Girl Now
EXTD=
EXTT0=
EXTT1=
EXTT2=
EXTT3=
EXTT4=
EXTT5=
EXTT6=
EXTT7=
EXTT8=
EXTT9=
EXTT10=
EXTT11=
EXTT12=
EXTT13=
PLAYORDER=
